<svg width="50" height="48" viewBox="0 0 50 48" fill="none" xmlns="http://www.w3.org/2000/svg">
<path d="M50 36.625V10.375C50 7.95417 48.0306 6 45.5908 6H4.40917C1.96943 6 0 7.95417 0 10.375V36.625C0 39.0458 1.96943 41 4.40917 41H45.5908C48.0306 41 50 39.0458 50 36.625ZM46.1493 10.0542C47.1193 11.0167 46.5902 12.0083 46.0611 12.5042L34.127 23.3542L45.5908 35.1958C45.9436 35.6042 46.1787 36.2458 45.7672 36.6833C45.3851 37.15 44.5032 37.1208 44.1211 36.8292L31.2757 25.95L24.9853 31.6375L18.7243 25.95L5.87889 36.8292C5.49677 37.1208 4.61493 37.15 4.2328 36.6833C3.82128 36.2458 4.05644 35.6042 4.40917 35.1958L15.873 23.3542L3.93886 12.5042C3.40976 12.0083 2.88066 11.0167 3.85068 10.0542C4.82069 9.09167 5.82011 9.55833 6.64315 10.2583L24.9853 24.9583L43.3568 10.2583C44.1799 9.55833 45.1793 9.09167 46.1493 10.0542Z" fill="#888888"/>
</svg>
