<svg width="48" height="48" viewBox="0 0 48 48" fill="none" xmlns="http://www.w3.org/2000/svg">
<path d="M41.1111 2C42.4077 2 43.6512 2.51508 44.5681 3.43192C45.4849 4.34877 46 5.59227 46 6.88889V41.1111C46 42.4077 45.4849 43.6512 44.5681 44.5681C43.6512 45.4849 42.4077 46 41.1111 46H6.88889C5.59227 46 4.34877 45.4849 3.43192 44.5681C2.51508 43.6512 2 42.4077 2 41.1111V6.88889C2 5.59227 2.51508 4.34877 3.43192 3.43192C4.34877 2.51508 5.59227 2 6.88889 2H41.1111ZM39.8889 39.8889V26.9333C39.8889 24.8199 39.0493 22.7929 37.5549 21.2985C36.0604 19.804 34.0335 18.9644 31.92 18.9644C29.8422 18.9644 27.4222 20.2356 26.2489 22.1422V19.4289H19.4289V39.8889H26.2489V27.8378C26.2489 25.9556 27.7644 24.4156 29.6467 24.4156C30.5543 24.4156 31.4248 24.7761 32.0665 25.4179C32.7083 26.0597 33.0689 26.9301 33.0689 27.8378V39.8889H39.8889ZM11.4844 15.5911C12.5736 15.5911 13.6181 15.1584 14.3883 14.3883C15.1584 13.6181 15.5911 12.5736 15.5911 11.4844C15.5911 9.21111 13.7578 7.35333 11.4844 7.35333C10.3888 7.35333 9.33804 7.78857 8.56331 8.56331C7.78857 9.33804 7.35333 10.3888 7.35333 11.4844C7.35333 13.7578 9.21111 15.5911 11.4844 15.5911ZM14.8822 39.8889V19.4289H8.11111V39.8889H14.8822Z" fill="#888888"/>
</svg>
