<svg width="48" height="48" viewBox="0 0 48 48" fill="none" xmlns="http://www.w3.org/2000/svg">
<path d="M33.8089 27.9663C33.2494 27.6869 30.4969 26.3407 29.9845 26.1532C29.4702 25.9675 29.0971 25.8757 28.7222 26.4344C28.3511 26.9913 27.2773 28.2457 26.9513 28.6169C26.6254 28.99 26.2976 29.035 25.7381 28.7575C25.1785 28.4763 23.3737 27.8894 21.2354 25.9919C19.5719 24.5144 18.4472 22.69 18.1213 22.1313C17.7954 21.5744 18.0874 21.2725 18.3662 20.995C18.6186 20.7457 18.9276 20.3444 19.2064 20.02C19.4871 19.6938 19.5795 19.4613 19.7679 19.0882C19.9544 18.7169 19.8621 18.3925 19.7208 18.1132C19.5795 17.8338 18.4604 15.0907 17.9951 13.9751C17.5391 12.8894 17.0776 13.0376 16.7347 13.0188C16.3769 13.0046 16.0189 12.9984 15.6609 13.0001C15.2878 13.0001 14.6812 13.1388 14.1688 13.6976C13.6563 14.2544 12.2095 15.6026 12.2095 18.3457C12.2095 21.0869 14.2159 23.7363 14.4947 24.1094C14.7754 24.4807 18.4434 30.1094 24.0595 32.5225C25.3952 33.0963 26.437 33.4394 27.2509 33.6944C28.5922 34.12 29.813 34.06 30.7757 33.9156C31.8515 33.7563 34.0877 32.5675 34.5549 31.2663C35.0222 29.965 35.0222 28.8494 34.8809 28.6169C34.7414 28.3844 34.3703 28.2457 33.8089 27.9663ZM23.5941 41.8469H23.5866C20.2516 41.8472 16.9779 40.9547 14.1085 39.2631L13.4284 38.8619L6.38055 40.7031L8.26072 33.8631L7.81799 33.1619C5.95372 30.2074 4.96748 26.7882 4.97324 23.2994C4.97512 13.0807 13.3304 4.76695 23.6017 4.76695C28.5753 4.76695 33.2512 6.69819 36.7667 10.2007C38.5012 11.9193 39.876 13.9633 40.8115 16.2143C41.7471 18.4652 42.2247 20.8785 42.2169 23.3144C42.2113 33.5331 33.8579 41.8469 23.5941 41.8469ZM39.4438 7.54007C37.368 5.46055 34.8982 3.8117 32.1776 2.68907C29.4569 1.56645 26.5394 0.992357 23.5941 1.00008C11.2449 1.00008 1.19405 11.0032 1.18839 23.2975C1.18839 27.2275 2.21891 31.0638 4.1801 34.4444L1 46L12.8783 42.8988C16.1631 44.6799 19.844 45.6133 23.5847 45.6138H23.5941C35.9415 45.6138 45.9942 35.6106 45.9999 23.3144C46.009 20.3843 45.4343 17.4815 44.3089 14.7739C43.1836 12.0662 41.53 9.60757 39.4438 7.54007Z" fill="#888888"/>
</svg>
